<svg height="70" width="155.78395" xmlns="http://www.w3.org/2000/svg">
<rect fill="#fff" height="70" width="155.78395" x="0" y="0"/>
<path d="M20.05291 34.312172L33.9418 34.312172L33.9418 25.758379Q33.9418 23.465609,33.655205 22.738096Q33.434746 22.18695,32.72928 21.790125Q31.781305 21.261024,30.723104 21.261024L29.664904 21.261024L29.664904 20.445328L42.4515 20.445328L42.4515 21.261024L41.3933 21.261024Q40.3351 21.261024,39.387127 21.768078Q38.681656 22.120813,38.42813 22.837303Q38.174606 23.553793,38.174606 25.758379L38.174606 45.0485Q38.174606 47.31922,38.4612 48.046738Q38.681656 48.597885,39.36508 48.99471Q40.3351 49.52381,41.3933 49.52381L42.4515 49.52381L42.4515 50.339508L29.664904 50.339508L29.664904 49.52381L30.723104 49.52381Q32.55291 49.52381,33.390656 48.443565Q33.9418 47.7381,33.9418 45.0485L33.9418 35.943565L20.05291 35.943565L20.05291 45.0485Q20.05291 47.31922,20.339506 48.046738Q20.559965 48.597885,21.265432 48.99471Q22.213404 49.52381,23.271606 49.52381L24.351852 49.52381L24.351852 50.339508L11.543209 50.339508L11.543209 49.52381L12.601411 49.52381Q14.453262 49.52381,15.291005 48.443565Q15.820106 47.7381,15.820106 45.0485L15.820106 25.758379Q15.820106 23.465609,15.53351 22.738096Q15.313051 22.18695,14.629629 21.790125Q13.659612 21.261024,12.601411 21.261024L11.543209 21.261024L11.543209 20.445328L24.351852 20.445328L24.351852 21.261024L23.271606 21.261024Q22.213404 21.261024,21.265432 21.768078Q20.58201 22.120813,20.31746 22.837303Q20.05291 23.553793,20.05291 25.758379L20.05291 34.312172ZM62.44356 29.84568L62.44356 42.08113Q62.44356 45.58642,62.608902 46.36905Q62.774246 47.151676,63.13801 47.46032Q63.501762 47.76896,63.98677 47.76896Q64.6702 47.76896,65.52998 47.39418L65.83862 48.165787L59.798058 50.656967L58.805996 50.656967L58.805996 46.38007Q56.204582 49.201942,54.83774 49.92945Q53.470898 50.656967,51.949734 50.656967Q50.2522 50.656967,49.00661 49.675926Q47.76102 48.694885,47.276012 47.151676Q46.791004 45.608467,46.791004 42.7866L46.791004 33.769844Q46.791004 32.33686,46.48236 31.785715Q46.173717 31.234568,45.56746 30.936949Q44.961197 30.63933,43.373894 30.661377L43.373894 29.84568L50.450615 29.84568L50.450615 43.359787Q50.450615 46.181656,51.431656 47.06349Q52.412697 47.945328,53.801586 47.945328Q54.749557 47.945328,55.951057 47.35009Q57.152557 46.754852,58.805996 45.079365L58.805996 33.637566Q58.805996 31.91799,58.17769 31.31173Q57.54938 30.705467,55.565254 30.661377L55.565254 29.84568L62.44356 29.84568ZM75.069664 19.535275L75.069664 46.320988Q75.069664 48.21693,75.34524 48.834213Q75.62081 49.4515,76.19401 49.771164Q76.7672 50.090828,78.33245 50.090828L78.33245 50.88448L68.43386 50.88448L68.43386 50.090828Q69.822754 50.090828,70.3298 49.804234Q70.83686 49.51764,71.12346 48.856262Q71.41006 48.194885,71.41006 46.320988L71.41006 27.978836Q71.41006 24.56173,71.25573 23.779102Q71.10141 22.996473,70.759705 22.709877Q70.41799 22.42328,69.88889 22.42328Q69.3157 22.42328,68.43386 22.776014L68.05908 22.00441L74.07761 19.535275L75.069664 19.535275ZM86.291885 19.535275L86.291885 39.61905L91.42857 34.945328Q93.05997 33.44621,93.32452 33.049385Q93.500885 32.784836,93.500885 32.520283Q93.500885 32.079365,93.13712 31.7597Q92.77337 31.440037,91.93562 31.395945L91.93562 30.690477L100.70988 30.690477L100.70988 31.395945Q98.902115 31.440037,97.700615 31.94709Q96.499115 32.454147,95.06614 33.754852L89.88536 38.538803L95.06614 45.08642Q97.22663 47.798058,97.97619 48.525574Q99.03439 49.56173,99.82804 49.87037Q100.37919 50.090828,101.74603 50.090828L101.74603 50.88448L91.93562 50.88448L91.93562 50.090828Q92.77337 50.068783,93.070984 49.837303Q93.36861 49.60582,93.36861 49.18695Q93.36861 48.679893,92.48677 47.555557L86.291885 39.641094L86.291885 46.343033Q86.291885 48.305115,86.56746 48.922398Q86.84303 49.53968,87.35009 49.804234Q87.85714 50.068783,89.55467 50.090828L89.55467 50.88448L79.2813 50.88448L79.2813 50.090828Q80.82452 50.090828,81.59612 49.71605Q82.05908 49.473545,82.30159 48.96649Q82.63227 48.238976,82.63227 46.453262L82.63227 28.06702Q82.63227 24.56173,82.47795 23.779102Q82.32363 22.996473,81.9709 22.698854Q81.618164 22.401236,81.044975 22.401236Q80.58201 22.401236,79.65608 22.776014L79.2813 22.00441L85.27778 19.535275L86.291885 19.535275ZM108.4277 37.834213Q108.40565 42.33157,110.61023 44.88889Q112.81482 47.446205,115.79101 47.446205Q117.77514 47.446205,119.24119 46.35494Q120.70724 45.263668,121.699295 42.618164L122.38272 43.059082Q121.919754 46.079365,119.69313 48.559525Q117.46649 51.03968,114.115524 51.03968Q110.47796 51.03968,107.88757 48.206787Q105.29718 45.373898,105.29718 40.589947Q105.29718 35.409172,107.953705 32.51014Q110.61023 29.61111,114.62258 29.61111Q118.01764 29.61111,120.20018 31.848764Q122.38272 34.08642,122.38272 37.834213L108.4277 37.834213ZM108.4277 36.555557L117.77514 36.555557Q117.66491 34.61552,117.31217 33.82187Q116.761024 32.587303,115.669754 31.881834Q114.57849 31.176367,113.38801 31.176367Q111.558205 31.176367,110.114204 32.598324Q108.6702 34.020283,108.4277 36.555557ZM130.30864 33.9321Q133.85803 29.655205,137.07672 29.655205Q138.73016 29.655205,139.92064 30.481924Q141.11111 31.308643,141.81659 33.204586Q142.30159 34.527336,142.30159 37.261024L142.30159 45.88095Q142.30159 47.798943,142.61023 48.48236Q142.85274 49.03351,143.39285 49.34215Q143.93298 49.650795,145.38802 49.650795L145.38802 50.444443L135.40125 50.444443L135.40125 49.650795L135.82011 49.650795Q137.23105 49.650795,137.79321 49.2209Q138.35538 48.791008,138.57584 47.953262Q138.66403 47.622574,138.66403 45.88095L138.66403 37.613758Q138.66403 34.858025,137.94754 33.612434Q137.23105 32.366844,135.53351 32.366844Q132.91005 32.366844,130.30864 35.232803L130.30864 45.88095Q130.30864 47.931217,130.55115 48.416225Q130.85979 49.055557,131.39992 49.353172Q131.94003 49.650795,133.59348 49.650795L133.59348 50.444443L123.606705 50.444443L123.606705 49.650795L124.04762 49.650795Q125.590836 49.650795,126.13096 48.868164Q126.67108 48.08554,126.67108 45.88095L126.67108 38.38536Q126.67108 34.747795,126.50574 33.954147Q126.34039 33.160492,125.99868 32.8739Q125.65697 32.587303,125.08378 32.587303Q124.46649 32.587303,123.606705 32.91799L123.27602 32.12434L129.36067 29.655205L130.30864 29.655205L130.30864 33.9321Z" fill="#000"/>
</svg>