<svg height="40" width="18.980652" xmlns="http://www.w3.org/2000/svg">
<rect fill="#fff" height="40" width="18.980652" x="0" y="0"/>
<path d="M7.9987907 11.634823Q7.7206774 10.752114,7.61185 10.062876Q7.515115 9.482465,7.515115 8.708584Q7.515115 8.442562,7.5272064 8.176539Q7.5755744 7.027809,7.9987907 6.0665035Q8.422008 5.105198,9.26844 4.5973377Q9.328899 4.561062,9.425634 4.561062Q9.510279 4.561062,9.570738 4.621522Q10.247884 5.298668,10.6106415 6.350663Q10.973398 7.4026585,10.973398 8.478837Q10.973398 9.724303,10.441355 10.921401Q9.933495 12.118499,9.01451 13.037483Q8.941959 13.110035,8.966143 13.230953L9.449819 15.165657Q9.486094 15.359127,9.691656 15.334944Q9.885127 15.3107605,10.066505 15.3107605Q10.767836 15.3107605,11.336155 15.588874Q11.904474 15.866987,12.255138 16.314388Q12.605804 16.761787,12.793228 17.299877Q12.980653 17.837967,12.980653 18.406286Q12.980653 19.44619,12.400242 20.286575Q11.819831 21.126963,11.009674 21.392984Q10.840387 21.453444,10.876663 21.646915Q11.17896 23.07376,11.1910515 24.053202Q11.1910515 24.428051,11.142685 24.790808Q11.045949 25.625149,10.417171 26.253927Q9.788391 26.882708,8.917775 26.882708Q7.8536882 26.882708,7.116082 26.241837Q6.378476 25.600965,6.378476 24.561062Q6.378476 24.029018,6.7533255 23.642078Q7.128174 23.255136,7.636034 23.255136Q8.155985 23.255136,8.512696 23.62394Q8.869408 23.992743,8.869408 24.500603Q8.869408 24.935911,8.579202 25.262392Q8.288997 25.600965,7.8778715 25.637241Q7.732769 25.649332,7.6844015 25.782343Q7.636034 25.915354,7.7811365 26.024181Q8.216445 26.362755,8.845223 26.362755Q9.534462 26.362755,10.036276 25.866987Q10.53809 25.37122,10.622732 24.742441Q10.683192 24.307133,10.683192 23.871824Q10.683192 22.928656,10.392986 21.779926Q10.34462 21.574364,10.126965 21.598547Q9.64329 21.659006,9.232164 21.659006Q7.4425635 21.659006,6.221282 20.53446Q5 19.409912,5 17.47521Q5 16.882706,5.1390567 16.308342Q5.278114 15.733976,5.4534464 15.316806Q5.6287785 14.899635,5.9975815 14.349454Q6.3663845 13.799273,6.5900846 13.509068Q6.8137846 13.218862,7.2974606 12.644497Q7.7811365 12.070131,7.962515 11.840385Q8.035067 11.755741,7.9987907 11.634823ZM9.885127 17.16082L10.671101 20.72793Q10.7073765 20.885126,10.888754 20.885126Q10.937122 20.885126,10.973398 20.873034Q11.469166 20.66747,11.795647 20.074968Q12.122128 19.482464,12.122128 18.902054Q12.122128 18.055622,11.62636 17.47521Q11.118501 16.882706,10.102781 16.882706Q10.018138 16.882706,9.9516325 16.949211Q9.885127 17.015717,9.885127 17.10036Q9.873035 17.136637,9.885127 17.16082ZM8.216445 13.799273Q8.022974 14.016927,7.64208 14.422005Q7.2611847 14.827084,7.0737605 15.038692Q6.8863363 15.2503,6.6142683 15.637241Q6.3422008 16.024181,6.20919 16.350662Q6.076179 16.677143,5.9733977 17.148727Q5.870617 17.620312,5.870617 18.152355Q5.870617 18.889961,6.324063 19.5792Q6.777509 20.268438,7.5695286 20.703747Q8.361547 21.139055,9.26844 21.139055Q9.594921 21.139055,9.993954 21.10278Q10.090689 21.090687,10.151149 21.01209Q10.211609 20.933493,10.187424 20.836758L9.401451 17.22128Q9.365175 17.051994,9.171705 17.051994Q9.135429 17.051994,9.087062 17.064085Q8.530834 17.269648,8.301088 17.644497Q8.071342 18.019344,8.071342 18.587666Q8.071342 19.25272,8.796856 19.736395Q8.881499 19.796854,8.881499 19.917774Q8.881499 20.014507,8.802902 20.099152Q8.724304 20.183796,8.615478 20.183796Q8.555018 20.183796,8.506651 20.15961Q7.8174124 19.796854,7.484885 19.174122Q7.152358 18.551388,7.152358 17.86215Q7.152358 17.197096,7.6299877 16.48972Q8.107618 15.782344,8.82104 15.516322Q9.0024185 15.443771,8.966143 15.262392L8.603386 13.896008Q8.579202 13.762997,8.434099 13.738813Q8.288997 13.714629,8.216445 13.799273ZM10.247884 6.7617874Q10.151149 6.447398,9.921402 6.447398Q9.848851 6.447398,9.788391 6.483674Q9.01451 6.943166,8.561064 7.777507Q8.107618 8.611848,8.107618 9.542924Q8.107618 10.147519,8.361547 11.030228Q8.397823 11.163239,8.542927 11.187423Q8.663845 11.199514,8.748488 11.102779Q8.784764 11.054412,9.093107 10.673517Q9.401451 10.292622,9.498186 10.165657Q9.594921 10.038692,9.824667 9.681981Q10.054413 9.325271,10.145103 9.0894785Q10.235792 8.853686,10.320435 8.503021Q10.405079 8.152356,10.405079 7.801691Q10.405079 7.293831,10.247884 6.7617874Z" fill="#000"/>
</svg>