<svg height="40" width="30.102041" xmlns="http://www.w3.org/2000/svg">
<rect fill="#fff" height="40" width="30.102041" x="0" y="0"/>
<path d="M24.204082 30.975513L19.134693 30.975513L17.493877 29.285717Q15.5836735 31.31837,12.42449 31.31837Q9.853062 31.31837,8.028571 29.983677Q6.2040815 28.648983,6.2040815 26.151024Q6.2040815 22.94286,9.828571 21.351025Q8.040816 19.612247,8.040816 17.579596Q8.040816 15.400003,9.657143 14.285717Q11.27347 13.1714325,13.453062 13.1714325Q15.632652 13.1714325,17.187756 14.297962Q18.742857 15.424493,18.742857 17.579596Q18.742857 20.371433,15.265306 22.110207L17.444899 24.33878L19.183674 21.669392L23.640816 21.669392L19.893877 26.6898L24.204082 30.975513ZM15.142857 17.702045Q15.142857 17.01633,14.689796 16.563269Q14.236734 16.110207,13.502041 16.110207Q12.791837 16.110207,12.314285 16.563269Q11.836735 17.01633,11.836735 17.702045Q11.836735 18.877554,13.134693 19.955105Q15.142857 19.146942,15.142857 17.702045ZM15.118368 26.836739L12.057142 23.653065Q10.2204075 24.387758,10.2204075 25.979595Q10.2204075 26.959187,10.930613 27.559187Q11.640816 28.159187,12.571428 28.159187Q14.138775 28.159187,15.118368 26.836739Z" fill="#000"/>
</svg>